<svg width="97" height="20" viewBox="0 0 97 20" fill="none" xmlns="http://www.w3.org/2000/svg">
<path d="M57.9531 4.625H59.7031L62.9922 13.3984L66.2734 4.625H68.0234L63.6797 16H62.2891L57.9531 4.625ZM57.1562 4.625H58.8203L59.1094 12.2188V16H57.1562V4.625ZM67.1562 4.625H68.8281V16H66.8672V12.2188L67.1562 4.625ZM74.6953 16.1562C74.0703 16.1562 73.5052 16.0547 73 15.8516C72.5 15.6432 72.0729 15.3542 71.7188 14.9844C71.3698 14.6146 71.1016 14.1797 70.9141 13.6797C70.7266 13.1797 70.6328 12.6406 70.6328 12.0625V11.75C70.6328 11.0885 70.7292 10.4896 70.9219 9.95312C71.1146 9.41667 71.3828 8.95833 71.7266 8.57812C72.0703 8.19271 72.4766 7.89844 72.9453 7.69531C73.4141 7.49219 73.9219 7.39062 74.4688 7.39062C75.0729 7.39062 75.6016 7.49219 76.0547 7.69531C76.5078 7.89844 76.8828 8.1849 77.1797 8.55469C77.4818 8.91927 77.7057 9.35417 77.8516 9.85938C78.0026 10.3646 78.0781 10.9219 78.0781 11.5312V12.3359H71.5469V10.9844H76.2188V10.8359C76.2083 10.4974 76.1406 10.1797 76.0156 9.88281C75.8958 9.58594 75.7109 9.34635 75.4609 9.16406C75.2109 8.98177 74.8776 8.89062 74.4609 8.89062C74.1484 8.89062 73.8698 8.95833 73.625 9.09375C73.3854 9.22396 73.1849 9.41406 73.0234 9.66406C72.862 9.91406 72.737 10.2161 72.6484 10.5703C72.5651 10.9193 72.5234 11.3125 72.5234 11.75V12.0625C72.5234 12.4323 72.5729 12.776 72.6719 13.0938C72.776 13.4062 72.9271 13.6797 73.125 13.9141C73.3229 14.1484 73.5625 14.3333 73.8438 14.4688C74.125 14.599 74.4453 14.6641 74.8047 14.6641C75.2578 14.6641 75.6615 14.5729 76.0156 14.3906C76.3698 14.2083 76.6771 13.9505 76.9375 13.6172L77.9297 14.5781C77.7474 14.8438 77.5104 15.099 77.2188 15.3438C76.9271 15.5833 76.5703 15.7786 76.1484 15.9297C75.7318 16.0807 75.2474 16.1562 74.6953 16.1562ZM81.4141 9.35156V16H79.5312V7.54688H81.3047L81.4141 9.35156ZM81.0781 11.4609L80.4688 11.4531C80.474 10.8542 80.5573 10.3047 80.7188 9.80469C80.8854 9.30469 81.1146 8.875 81.4062 8.51562C81.7031 8.15625 82.0573 7.88021 82.4688 7.6875C82.8802 7.48958 83.3385 7.39062 83.8438 7.39062C84.25 7.39062 84.6172 7.44792 84.9453 7.5625C85.2786 7.67188 85.5625 7.85156 85.7969 8.10156C86.0365 8.35156 86.2188 8.67708 86.3438 9.07812C86.4688 9.47396 86.5312 9.96094 86.5312 10.5391V16H84.6406V10.5312C84.6406 10.125 84.5807 9.80469 84.4609 9.57031C84.3464 9.33073 84.1771 9.16146 83.9531 9.0625C83.7344 8.95833 83.4609 8.90625 83.1328 8.90625C82.8099 8.90625 82.5208 8.97396 82.2656 9.10938C82.0104 9.24479 81.7943 9.42969 81.6172 9.66406C81.4453 9.89844 81.3125 10.1693 81.2188 10.4766C81.125 10.7839 81.0781 11.112 81.0781 11.4609ZM93.5391 14.0078V7.54688H95.4297V16H93.6484L93.5391 14.0078ZM93.8047 12.25L94.4375 12.2344C94.4375 12.8021 94.375 13.3255 94.25 13.8047C94.125 14.2786 93.9323 14.6927 93.6719 15.0469C93.4115 15.3958 93.0781 15.6693 92.6719 15.8672C92.2656 16.0599 91.7786 16.1562 91.2109 16.1562C90.7995 16.1562 90.4219 16.0964 90.0781 15.9766C89.7344 15.8568 89.4375 15.6719 89.1875 15.4219C88.9427 15.1719 88.7526 14.8464 88.6172 14.4453C88.4818 14.0443 88.4141 13.5651 88.4141 13.0078V7.54688H90.2969V13.0234C90.2969 13.3307 90.3333 13.5885 90.4062 13.7969C90.4792 14 90.5781 14.1641 90.7031 14.2891C90.8281 14.4141 90.974 14.5026 91.1406 14.5547C91.3073 14.6068 91.4844 14.6328 91.6719 14.6328C92.2083 14.6328 92.6302 14.5286 92.9375 14.3203C93.25 14.1068 93.4714 13.8203 93.6016 13.4609C93.737 13.1016 93.8047 12.6979 93.8047 12.25Z" fill="white"/>
<line y1="9" x2="36" y2="9" stroke="white" stroke-width="2"/>
<line y1="17" x2="24" y2="17" stroke="white" stroke-width="2"/>
<line y1="1" x2="24" y2="1" stroke="white" stroke-width="2"/>
</svg>
